<?xml version="1.0" encoding="UTF-8" standalone="no"?>
<svg
   version="1.1"
   viewBox="0 0 400.00002 400"
   width="400"
   height="400"
   filter="invert(93%) hue-rotate(180deg)"
   id="svg10"
   sodipodi:docname="piaf_gray.svg"
   inkscape:version="1.3.2 (091e20ef0f, 2023-11-25)"
   xmlns:inkscape="http://www.inkscape.org/namespaces/inkscape"
   xmlns:sodipodi="http://sodipodi.sourceforge.net/DTD/sodipodi-0.dtd"
   xmlns="http://www.w3.org/2000/svg"
   xmlns:svg="http://www.w3.org/2000/svg">
  <sodipodi:namedview
     id="namedview10"
     pagecolor="#ffffff"
     bordercolor="#000000"
     borderopacity="0.25"
     inkscape:showpageshadow="2"
     inkscape:pageopacity="0.0"
     inkscape:pagecheckerboard="0"
     inkscape:deskcolor="#d1d1d1"
     inkscape:zoom="1.0250576"
     inkscape:cx="58.533296"
     inkscape:cy="22.925541"
     inkscape:window-width="1920"
     inkscape:window-height="1011"
     inkscape:window-x="0"
     inkscape:window-y="0"
     inkscape:window-maximized="1"
     inkscape:current-layer="svg10" />
  <!-- svg-source:excalidraw -->
  <defs
     id="defs1">
    <style
       class="style-fonts"
       id="style1" />
  </defs>
  <g
     stroke-linecap="round"
     id="g2"
     style="fill:#9b9b9b;fill-opacity:1;stroke:#020000;stroke-opacity:1"
     transform="translate(34.258745,5.9295448)">
    <g
       stroke-opacity="0.7"
       fill-opacity="0.7"
       transform="translate(153.39349,95.833333)"
       id="g1"
       style="fill:#9b9b9b;fill-opacity:1;stroke:#020000;stroke-opacity:1">
      <path
         id="path1"
         style="fill:#9b9b9b;fill-opacity:1;stroke:#020000;stroke-opacity:1"
         d="M 19.465885,-2.1419271 C 13.319569,-2.3042669 6.8110922,-1.6214255 -9.118389e-4,6.5104167e-4 -5.7659061,10.97314 -16.173034,30.190518 -28.823177,53.527995 c -12.650144,23.337476 -27.542828,50.794715 -42.273438,78.242185 -7.365305,13.72374 -14.689284,27.44502 -21.673828,40.64844 -13.969087,26.40685 -26.577387,50.74064 -35.419917,68.875 -2.21064,4.53359 -4.18614,8.6809 -5.88868,12.375 -1.70254,3.6941 -3.13062,6.93649 -4.25,9.66211 -2.23999,5.45124 -3.66543,9.7977 -4.41406,13.19531 -0.37432,1.69881 -0.57853,3.16061 -0.63281,4.4043 -0.0271,0.62184 -0.017,1.18778 0.0293,1.70312 0.0463,0.51535 0.12886,0.97887 0.24414,1.39258 0.11527,0.41371 0.26348,0.77877 0.44336,1.0957 0.17987,0.31694 0.39077,0.58554 0.63085,0.81055 0.24009,0.22501 0.5088,0.40503 0.80469,0.54297 0.29589,0.13794 0.6195,0.23528 0.9668,0.29102 1.38918,0.22293 3.17141,-0.19368 5.20703,-1.0918 3.05343,-1.34719 6.6748,-3.78013 10.39063,-6.77539 1.2386,-0.99842 2.48867,-2.06024 3.73046,-3.16406 1.2418,-1.10383 2.47577,-2.24955 3.68555,-3.41993 3.62934,-3.51112 7.03469,-7.23391 9.74219,-10.64453 1.805,-2.27499 3.65441,-5.34731 5.55469,-9.01953 0.95013,-1.83611 1.91363,-3.8214 2.890621,-5.93359 0.976986,-2.11219 1.966798,-4.35 2.972656,-6.68946 2.011717,-4.6789 4.083322,-9.76356 6.222656,-15.05859 2.139334,-5.29503 4.347737,-10.80165 6.63086,-16.32226 7.990929,-19.32217 16.911294,-38.82924 27.109375,-50.1504 1.456868,-1.6173 2.93922,-3.06742 4.449218,-4.32617 C -27.500858,134.03059 7.35247,152.48076 37.319401,137.83268 58.586386,127.4372 71.530968,111.67071 76.670963,93.330729 87.855721,41.549625 62.490095,-1.005548 19.465885,-2.1419271 Z m 0.501953,23.7500001 c 24.361566,1.241969 40.627967,42.946669 29.867188,70.607422 -7.744443,21.839015 -62.589486,40.085325 -81.054688,18.593745 z" />
    </g>
  </g>
  <mask
     id="mask2" />
  <g
     stroke-linecap="round"
     id="g4"
     style="fill:#9b9b9b;fill-opacity:1;stroke:#020000;stroke-opacity:1"
     transform="translate(34.258745,5.9295448)">
    <g
       stroke-opacity="0.7"
       fill-opacity="0.7"
       transform="translate(177.56016,270)"
       id="g3"
       style="fill:#9b9b9b;fill-opacity:1;stroke:#020000;stroke-opacity:1">
      <path
         d="m 0,0 c 9.72,-10.14 47.5,-40.14 58.33,-60.83 10.84,-20.7 6.25,-46.53 6.67,-63.34 0.42,-16.8 -8.19,-31.11 -4.17,-37.5 4.03,-6.39 21.81,-12.77 28.34,-0.83 6.52,11.94 12.77,50.28 10.83,72.5 -1.94,22.22 -8.47,42.92 -22.5,60.83 C 63.47,-11.25 28.75,12.64 15.83,17.5 2.92,22.36 2.64,2.92 0,0 m 0,0 c 9.72,-10.14 47.5,-40.14 58.33,-60.83 10.84,-20.7 6.25,-46.53 6.67,-63.34 0.42,-16.8 -8.19,-31.11 -4.17,-37.5 4.03,-6.39 21.81,-12.77 28.34,-0.83 6.52,11.94 12.77,50.28 10.83,72.5 -1.94,22.22 -8.47,42.92 -22.5,60.83 C 63.47,-11.25 28.75,12.64 15.83,17.5 2.92,22.36 2.64,2.92 0,0"
         stroke="#1e1e1e"
         stroke-width="1"
         fill="none"
         id="path2"
         style="fill:#9b9b9b;fill-opacity:1;stroke:#020000;stroke-opacity:1" />
    </g>
  </g>
  <mask
     id="mask4" />
  <g
     stroke-opacity="0.7"
     fill-opacity="0.7"
     stroke-linecap="round"
     transform="matrix(0.95935801,0,0,0.98045773,223.67817,17.088029)"
     id="g5"
     style="fill:#9b9b9b;fill-opacity:1;stroke:#020000;stroke-opacity:1">
    <path
       d="m 84.198053,43.901773 c 0,1.914625 -0.141388,3.848395 -0.405314,5.7343 -0.27335,1.895478 -0.678664,3.781382 -1.206514,5.619422 -0.52785,1.838039 -1.197089,3.647359 -1.979438,5.389667 -0.782349,1.732735 -1.687235,3.43675 -2.705232,5.045034 -1.017996,1.598712 -2.158529,3.149557 -3.393322,4.595098 -1.234792,1.445542 -2.582695,2.814498 -4.006005,4.068577 -1.42331,1.254079 -2.950305,2.412426 -4.524429,3.446323 -1.583551,1.033897 -3.26136,1.952917 -4.967447,2.747486 -1.715512,0.794569 -3.497007,1.47426 -5.306778,2.010355 -1.809772,0.536095 -3.666673,0.947739 -5.533,1.22536 -1.856902,0.268047 -3.760932,0.411644 -5.646111,0.411644 -1.875753,0 -3.779784,-0.143597 -5.646111,-0.411644 C 37.021451,83.505774 35.155124,83.09413 33.354778,82.558035 31.545006,82.02194 29.763512,81.342249 28.047999,80.54768 26.341912,79.753111 24.664103,78.834091 23.080553,77.800194 21.497002,76.766297 19.970008,75.60795 18.546697,74.353871 17.132813,73.099792 15.78491,71.730836 14.550118,70.285294 13.315326,68.839753 12.174793,67.288908 11.156796,65.690196 10.1388,64.081912 9.2244877,62.377897 8.4421385,60.645162 7.6597893,58.902854 6.9999766,57.093534 6.4627006,55.255495 5.9348506,53.417455 5.5295371,51.531551 5.265612,49.636073 4.9922611,47.750168 4.8602986,45.816398 4.8602986,43.901773 c 0,-1.905051 0.1319625,-3.838821 0.4053134,-5.734299 0.2639251,-1.885905 0.6692386,-3.781383 1.1970886,-5.609849 0.537276,-1.838039 1.1970887,-3.647359 1.9794379,-5.389667 0.7823492,-1.732735 1.6966615,-3.43675 2.7146575,-5.045035 1.017997,-1.608284 2.15853,-3.159129 3.393322,-4.604671 1.234792,-1.435968 2.582695,-2.804924 3.996579,-4.059003 1.423311,-1.254079 2.950305,-2.412426 4.533856,-3.446323 1.58355,-1.0338974 3.261359,-1.9624901 4.967446,-2.7570591 1.715513,-0.7945691 3.497007,-1.4646875 5.306779,-2.0103554 1.800346,-0.5360948 3.666673,-0.947739 5.523574,-1.2157864 1.866327,-0.2776205 3.770358,-0.4116442 5.646111,-0.4116442 1.885179,0 3.789209,0.1340237 5.646111,0.4116442 1.866327,0.2680474 3.723228,0.6796916 5.533,1.2157864 1.809771,0.5456679 3.591266,1.2157863 5.306778,2.0103554 1.706087,0.794569 3.383896,1.7231617 4.967447,2.7570591 1.574124,1.033897 3.101119,2.192244 4.524429,3.446323 1.42331,1.254079 2.771213,2.623035 4.006005,4.059003 1.234793,1.445542 2.375326,2.996387 3.393322,4.604671 1.017997,1.608285 1.922883,3.3123 2.705232,5.045035 0.782349,1.742308 1.451588,3.551628 1.979438,5.389667 0.52785,1.828466 0.933164,3.723944 1.206514,5.609849 0.263926,1.895478 0.339333,4.78656 0.405314,5.734299 0.06598,0.957312 0.06598,-0.947739 0,0"
       stroke="#1e1e1e"
       stroke-width="0.949922"
       fill="none"
       id="path4"
       style="fill:#9b9b9b;fill-opacity:1;stroke:#020000;stroke-opacity:1" />
  </g>
  <g
     stroke-linecap="round"
     id="g7"
     style="fill:#9b9b9b;fill-opacity:1;stroke:#020000;stroke-opacity:1"
     transform="translate(34.258745,5.9295448)">
    <g
       stroke-opacity="0.7"
       fill-opacity="0.7"
       transform="rotate(7.5573153,-121.58014,1967.8198)"
       id="g6"
       style="fill:#9b9b9b;fill-opacity:1;stroke:#020000;stroke-opacity:1">
      <path
         d="m 19.36,-0.5 c -2.64,3.92 -5.72,0.28 -6.26,-1.41 -0.53,-1.68 3.06,-6.42 3.05,-8.69 -0.01,-2.26 -1.03,-4.57 -3.12,-4.91 -2.1,-0.33 -7.29,3.08 -9.46,2.9 -2.17,-0.17 -3.51072808,0.870437 -4.7852566,-3.145085 C -3.9358369,-21.767284 24.290346,-28.016048 27.520346,-25.346048 30.740346,-22.666048 21.99,-4.42 19.36,-0.5 c -2.64,3.92 -5.72,0.28 -6.26,-1.41 -0.53,-1.68 3.06,-6.42 3.05,-8.69 -0.01,-2.26 -1.03,-4.57 -3.12,-4.91"
         stroke="#1e1e1e"
         stroke-width="1"
         fill="none"
         id="path5"
         sodipodi:nodetypes="ccsccccccsc"
         style="fill:#9b9b9b;fill-opacity:1;stroke:#020000;stroke-opacity:1" />
    </g>
  </g>
  <mask
     id="mask7" />
  <g
     stroke-linecap="round"
     id="g9"
     style="fill:#9b9b9b;fill-opacity:1;stroke:#020000;stroke-opacity:1"
     transform="translate(34.258745,5.9295448)">
    <g
       stroke-opacity="0.7"
       fill-opacity="0.7"
       transform="rotate(11.46179,-1784.8424,1164.991)"
       id="g8"
       style="fill:#9b9b9b;fill-opacity:1;stroke:#020000;stroke-opacity:1">
      <path
         d="m -0.72,-49.23 c -0.16,-8.51 -7.56,-42.23 -0.95,-51.1 6.61,-8.88 34.15,-3.61 40.6,-2.17 6.45,1.44 2.83,9.17 -1.89,10.83 -4.72,1.66 -21.95,-2.82 -26.43,-0.87 -4.49,1.95 -2.21,10.32 -0.47,12.56 1.73,2.24 9.12,-0.58 10.85,0.87 1.73,1.44 1.5,6.71 -0.47,7.79 -1.97,1.09 -8.81,-5.48 -11.33,-1.29 -2.52,4.18 -2.12,22.52 -3.78,26.42 -1.65,3.89 -5.11,-2.53 -6.13,-3.04 m 0,0 c -0.16,-8.51 -7.56,-42.23 -0.95,-51.1 6.61,-8.88 34.15,-3.61 40.6,-2.17 6.45,1.44 2.83,9.17 -1.89,10.83 -4.72,1.66 -21.95,-2.82 -26.43,-0.87 -4.49,1.95 -2.21,10.32 -0.47,12.56 1.73,2.24 9.12,-0.58 10.85,0.87 1.73,1.44 1.5,6.71 -0.47,7.79 -1.97,1.09 -8.81,-5.48 -11.33,-1.29 -2.52,4.18 -2.12,22.52 -3.78,26.42 -1.65,3.89 -5.11,-2.53 -6.13,-3.04"
         stroke="#1e1e1e"
         stroke-width="1"
         fill="none"
         id="path7"
         style="fill:#9b9b9b;fill-opacity:1;stroke:#020000;stroke-opacity:1" />
    </g>
  </g>
  <mask
     id="mask9" />
  <g
     stroke-linecap="round"
     transform="translate(266.81891,28.429545)"
     id="g10">
    <path
       d="m 7.5,1.5 c 0.93,1.05 1.87,2.1 2.67,3 1.5,1.5 1.5,1.5 0,3 C 9.5,8.17 8.83,8.84 7.5,10.17 6,11.67 6,11.67 4.5,10.17 3.58,9.35 2.66,8.53 1.5,7.5 0,6 0,6 1.5,4.5 2.33,3.67 3.17,2.83 4.5,1.5 6,0 6,0 7.5,1.5"
       stroke="none"
       stroke-width="0"
       fill="#e03131"
       id="path9" />
    <path
       d="m 7.5,1.5 c 0.93,1.04 1.85,2.09 2.67,3 M 7.5,1.5 c 0.66,0.74 1.32,1.49 2.67,3 m 0,0 c 1.5,1.5 1.5,1.5 0,3 m 0,-3 c 1.5,1.5 1.5,1.5 0,3 m 0,0 C 9.56,8.11 8.95,8.72 7.5,10.17 M 10.17,7.5 C 9.25,8.42 8.33,9.34 7.5,10.17 m 0,0 c -1.5,1.5 -1.5,1.5 -3,0 m 3,0 c -1.5,1.5 -1.5,1.5 -3,0 m 0,0 C 3.82,9.56 3.13,8.95 1.5,7.5 m 3,2.67 C 3.33,9.13 2.17,8.09 1.5,7.5 m 0,0 C 0,6 0,6 1.5,4.5 m 0,3 C 0,6 0,6 1.5,4.5 m 0,0 c 0.76,-0.76 1.52,-1.52 3,-3 m -3,3 c 0.79,-0.79 1.59,-1.59 3,-3 m 0,0 C 6,0 6,0 7.5,1.5 m -3,0 C 6,0 6,0 7.5,1.5"
       stroke="#e03131"
       stroke-width="1"
       fill="none"
       id="path10" />
  </g>
</svg>
