<?xml version="1.0" encoding="UTF-8" standalone="no"?>
<svg
   version="1.1"
   viewBox="0 0 300.08805480451235 392.660858549961"
   width="300.08805480451235"
   height="392.660858549961"
   filter="invert(93%) hue-rotate(180deg)"
   id="svg10"
   sodipodi:docname="piaf_red.svg"
   inkscape:version="1.3.2 (091e20ef0f, 2023-11-25)"
   xmlns:inkscape="http://www.inkscape.org/namespaces/inkscape"
   xmlns:sodipodi="http://sodipodi.sourceforge.net/DTD/sodipodi-0.dtd"
   xmlns="http://www.w3.org/2000/svg"
   xmlns:svg="http://www.w3.org/2000/svg">
  <sodipodi:namedview
     id="namedview10"
     pagecolor="#ffffff"
     bordercolor="#000000"
     borderopacity="0.25"
     inkscape:showpageshadow="2"
     inkscape:pageopacity="0.0"
     inkscape:pagecheckerboard="0"
     inkscape:deskcolor="#d1d1d1"
     inkscape:zoom="1.0250576"
     inkscape:cx="58.533296"
     inkscape:cy="22.925541"
     inkscape:window-width="1920"
     inkscape:window-height="1011"
     inkscape:window-x="0"
     inkscape:window-y="0"
     inkscape:window-maximized="1"
     inkscape:current-layer="svg10" />
  <!-- svg-source:excalidraw -->
  <defs
     id="defs1">
    <style
       class="style-fonts"
       id="style1" />
  </defs>
  <g
     stroke-linecap="round"
     id="g2"
     style="stroke:#fd0000;stroke-opacity:0.91062015;stroke-width:3;stroke-dasharray:none">
    <g
       stroke-opacity="0.7"
       fill-opacity="0.7"
       transform="translate(153.39348996390243 95.83333333333331) rotate(0 -32.312440363591065 141.9406512964266)"
       id="g1"
       style="stroke:#fd0000;stroke-opacity:0.91062015;stroke-width:3;stroke-dasharray:none">
      <path
         d="m 0,0 c -23.06,43.89 -120.42,219.72 -138.33,263.33 -17.92,43.61 16.39,16.53 30.83,-1.66 14.44,-18.2 31.67,-87.36 55.83,-107.5 C -27.5,134.03 7.3525004,152.48168 37.319461,137.83359 58.586468,127.4381 71.53,111.67 76.67,93.33 89.452593,34.151536 54.496087,-12.976625 0,0 m 0,0 c -23.06,43.89 -120.42,219.72 -138.33,263.33 -17.92,43.61 16.39,16.53 30.83,-1.66 14.44,-18.2 31.67,-87.36 55.83,-107.5"
         stroke="#1e1e1e"
         stroke-width="1"
         fill="none"
         id="path1"
         sodipodi:nodetypes="ccccscccccc"
         style="stroke:#fd0000;stroke-opacity:0.91062015;stroke-width:3;stroke-dasharray:none" />
    </g>
  </g>
  <mask
     id="mask2" />
  <g
     stroke-linecap="round"
     id="g4"
     style="stroke:#fd0000;stroke-opacity:0.91062015;stroke-width:3;stroke-dasharray:none">
    <g
       stroke-opacity="0.7"
       fill-opacity="0.7"
       transform="translate(177.56015663056894 270.00000000000006) rotate(0 50.18027702613614 -75.46674760581357)"
       id="g3"
       style="stroke:#fd0000;stroke-opacity:0.91062015;stroke-width:3;stroke-dasharray:none">
      <path
         d="M0 0 C9.72 -10.14, 47.5 -40.14, 58.33 -60.83 C69.17 -81.53, 64.58 -107.36, 65 -124.17 C65.42 -140.97, 56.81 -155.28, 60.83 -161.67 C64.86 -168.06, 82.64 -174.44, 89.17 -162.5 C95.69 -150.56, 101.94 -112.22, 100 -90 C98.06 -67.78, 91.53 -47.08, 77.5 -29.17 C63.47 -11.25, 28.75 12.64, 15.83 17.5 C2.92 22.36, 2.64 2.92, 0 0 M0 0 C9.72 -10.14, 47.5 -40.14, 58.33 -60.83 C69.17 -81.53, 64.58 -107.36, 65 -124.17 C65.42 -140.97, 56.81 -155.28, 60.83 -161.67 C64.86 -168.06, 82.64 -174.44, 89.17 -162.5 C95.69 -150.56, 101.94 -112.22, 100 -90 C98.06 -67.78, 91.53 -47.08, 77.5 -29.17 C63.47 -11.25, 28.75 12.64, 15.83 17.5 C2.92 22.36, 2.64 2.92, 0 0"
         stroke="#1e1e1e"
         stroke-width="1"
         fill="none"
         id="path2"
         style="stroke:#fd0000;stroke-opacity:0.91062015;stroke-width:3;stroke-dasharray:none" />
    </g>
  </g>
  <mask
     id="mask4" />
  <g
     stroke-opacity="0.7"
     fill-opacity="0.7"
     stroke-linecap="round"
     transform="matrix(0.95935801,0,0,0.98045773,189.41942,11.158484)"
     id="g5"
     style="stroke:#fd0000;stroke-opacity:0.91062015;stroke-width:3.09326028;stroke-dasharray:none">
    <path
       d="m 84.198053,43.901773 c 0,1.914625 -0.141388,3.848395 -0.405314,5.7343 -0.27335,1.895478 -0.678664,3.781382 -1.206514,5.619422 -0.52785,1.838039 -1.197089,3.647359 -1.979438,5.389667 -0.782349,1.732735 -1.687235,3.43675 -2.705232,5.045034 -1.017996,1.598712 -2.158529,3.149557 -3.393322,4.595098 -1.234792,1.445542 -2.582695,2.814498 -4.006005,4.068577 -1.42331,1.254079 -2.950305,2.412426 -4.524429,3.446323 -1.583551,1.033897 -3.26136,1.952917 -4.967447,2.747486 -1.715512,0.794569 -3.497007,1.47426 -5.306778,2.010355 -1.809772,0.536095 -3.666673,0.947739 -5.533,1.22536 -1.856902,0.268047 -3.760932,0.411644 -5.646111,0.411644 -1.875753,0 -3.779784,-0.143597 -5.646111,-0.411644 C 37.021451,83.505774 35.155124,83.09413 33.354778,82.558035 31.545006,82.02194 29.763512,81.342249 28.047999,80.54768 26.341912,79.753111 24.664103,78.834091 23.080553,77.800194 21.497002,76.766297 19.970008,75.60795 18.546697,74.353871 17.132813,73.099792 15.78491,71.730836 14.550118,70.285294 13.315326,68.839753 12.174793,67.288908 11.156796,65.690196 10.1388,64.081912 9.2244877,62.377897 8.4421385,60.645162 7.6597893,58.902854 6.9999766,57.093534 6.4627006,55.255495 5.9348506,53.417455 5.5295371,51.531551 5.265612,49.636073 4.9922611,47.750168 4.8602986,45.816398 4.8602986,43.901773 c 0,-1.905051 0.1319625,-3.838821 0.4053134,-5.734299 0.2639251,-1.885905 0.6692386,-3.781383 1.1970886,-5.609849 0.537276,-1.838039 1.1970887,-3.647359 1.9794379,-5.389667 0.7823492,-1.732735 1.6966615,-3.43675 2.7146575,-5.045035 1.017997,-1.608284 2.15853,-3.159129 3.393322,-4.604671 1.234792,-1.435968 2.582695,-2.804924 3.996579,-4.059003 1.423311,-1.254079 2.950305,-2.412426 4.533856,-3.446323 1.58355,-1.0338974 3.261359,-1.9624901 4.967446,-2.7570591 1.715513,-0.7945691 3.497007,-1.4646875 5.306779,-2.0103554 1.800346,-0.5360948 3.666673,-0.947739 5.523574,-1.2157864 1.866327,-0.2776205 3.770358,-0.4116442 5.646111,-0.4116442 1.885179,0 3.789209,0.1340237 5.646111,0.4116442 1.866327,0.2680474 3.723228,0.6796916 5.533,1.2157864 1.809771,0.5456679 3.591266,1.2157863 5.306778,2.0103554 1.706087,0.794569 3.383896,1.7231617 4.967447,2.7570591 1.574124,1.033897 3.101119,2.192244 4.524429,3.446323 1.42331,1.254079 2.771213,2.623035 4.006005,4.059003 1.234793,1.445542 2.375326,2.996387 3.393322,4.604671 1.017997,1.608285 1.922883,3.3123 2.705232,5.045035 0.782349,1.742308 1.451588,3.551628 1.979438,5.389667 0.52785,1.828466 0.933164,3.723944 1.206514,5.609849 0.263926,1.895478 0.339333,4.78656 0.405314,5.734299 0.06598,0.957312 0.06598,-0.947739 0,0"
       stroke="#1e1e1e"
       stroke-width="0.949922"
       fill="none"
       id="path4"
       style="stroke:#fd0000;stroke-opacity:0.91062015;stroke-width:3.09326028;stroke-dasharray:none" />
  </g>
  <g
     stroke-linecap="round"
     id="g7"
     style="stroke:#fd0000;stroke-opacity:0.91062015;stroke-width:3;stroke-dasharray:none">
    <g
       stroke-opacity="0.7"
       fill-opacity="0.7"
       transform="translate(259.2389992798569 35.13250447681452) rotate(7.557315319886737 14.771137177749267 -12.316426859856222)"
       id="g6"
       style="stroke:#fd0000;stroke-opacity:0.91062015;stroke-width:3;stroke-dasharray:none">
      <path
         d="m 19.36,-0.5 c -2.64,3.92 -5.72,0.28 -6.26,-1.41 -0.53,-1.68 3.06,-6.42 3.05,-8.69 -0.01,-2.26 -1.03,-4.57 -3.12,-4.91 -2.1,-0.33 -7.29,3.08 -9.46,2.9 -2.0230167,0.937884 -3.51072808,0.870437 -4.7852566,-3.145085 C -3.9358369,-21.767284 24.290346,-28.016048 27.520346,-25.346048 30.740346,-22.666048 21.99,-4.42 19.36,-0.5 c -2.64,3.92 -5.72,0.28 -6.26,-1.41 -0.53,-1.68 3.06,-6.42 3.05,-8.69 -0.01,-2.26 -1.03,-4.57 -3.12,-4.91"
         stroke="#1e1e1e"
         stroke-width="1"
         fill="none"
         id="path5"
         sodipodi:nodetypes="ccsccccccsc"
         style="stroke:#fd0000;stroke-opacity:0.91062015;stroke-width:3;stroke-dasharray:none" />
    </g>
  </g>
  <mask
     id="mask7" />
  <g
     stroke-linecap="round"
     id="g9"
     style="stroke:#fd0000;stroke-opacity:0.91062015;stroke-width:3;stroke-dasharray:none">
    <g
       stroke-opacity="0.7"
       fill-opacity="0.7"
       transform="translate(210.46201014563758 383.18204767376864) rotate(11.46179010167801 19.00444433184009 -75.1573527730157)"
       id="g8"
       style="stroke:#fd0000;stroke-opacity:0.91062015;stroke-width:3;stroke-dasharray:none">
      <path
         d="M-0.72 -49.23 C-0.88 -57.74, -8.28 -91.46, -1.67 -100.33 C4.94 -109.21, 32.48 -103.94, 38.93 -102.5 C45.38 -101.06, 41.76 -93.33, 37.04 -91.67 C32.32 -90.01, 15.09 -94.49, 10.61 -92.54 C6.12 -90.59, 8.4 -82.22, 10.14 -79.98 C11.87 -77.74, 19.26 -80.56, 20.99 -79.11 C22.72 -77.67, 22.49 -72.4, 20.52 -71.32 C18.55 -70.23, 11.71 -76.8, 9.19 -72.61 C6.67 -68.43, 7.07 -50.09, 5.41 -46.19 C3.76 -42.3, 0.3 -48.72, -0.72 -49.23 M-0.72 -49.23 C-0.88 -57.74, -8.28 -91.46, -1.67 -100.33 C4.94 -109.21, 32.48 -103.94, 38.93 -102.5 C45.38 -101.06, 41.76 -93.33, 37.04 -91.67 C32.32 -90.01, 15.09 -94.49, 10.61 -92.54 C6.12 -90.59, 8.4 -82.22, 10.14 -79.98 C11.87 -77.74, 19.26 -80.56, 20.99 -79.11 C22.72 -77.67, 22.49 -72.4, 20.52 -71.32 C18.55 -70.23, 11.71 -76.8, 9.19 -72.61 C6.67 -68.43, 7.07 -50.09, 5.41 -46.19 C3.76 -42.3, 0.3 -48.72, -0.72 -49.23"
         stroke="#1e1e1e"
         stroke-width="1"
         fill="none"
         id="path7"
         style="stroke:#fd0000;stroke-opacity:0.91062015;stroke-width:3;stroke-dasharray:none" />
    </g>
  </g>
  <path
     style="stroke:#fd0000;stroke-opacity:0.91062015;stroke-width:3;stroke-dasharray:none;fill:#61797b;fill-opacity:0.00226955;stroke-linejoin:round;paint-order:markers fill stroke"
     d="m 122.17472,206.64162 51.18578,-89.19929 c 24.36159,1.24197 40.62827,42.94558 29.86748,70.60636 -7.74445,21.83904 -62.58804,40.08453 -81.05326,18.59293 z"
     id="path11"
     sodipodi:nodetypes="cccc" />
  <mask
     id="mask9" />
  <g
     stroke-linecap="round"
     transform="translate(232.56016,22.5)"
     id="g10"
     style="stroke:#db1d1d;stroke-opacity:0.91061997;stroke-width:1.00400398;stroke-dasharray:none">
    <path
       d="M7.5 1.5 C8.43 2.55, 9.37 3.6, 10.17 4.5 C11.67 6, 11.67 6, 10.17 7.5 C9.5 8.17, 8.83 8.84, 7.5 10.17 C6 11.67, 6 11.67, 4.5 10.17 C3.58 9.35, 2.66 8.53, 1.5 7.5 C0 6, 0 6, 1.5 4.5 C2.33 3.67, 3.17 2.83, 4.5 1.5 C6 0, 6 0, 7.5 1.5"
       stroke="none"
       stroke-width="0"
       fill="#e03131"
       id="path9"
       style="stroke:#db1d1d;stroke-opacity:0.91061997;stroke-width:1.00400398;stroke-dasharray:none" />
    <path
       d="M7.5 1.5 C8.43 2.54, 9.35 3.59, 10.17 4.5 M7.5 1.5 C8.16 2.24, 8.82 2.99, 10.17 4.5 M10.17 4.5 C11.67 6, 11.67 6, 10.17 7.5 M10.17 4.5 C11.67 6, 11.67 6, 10.17 7.5 M10.17 7.5 C9.56 8.11, 8.95 8.72, 7.5 10.17 M10.17 7.5 C9.25 8.42, 8.33 9.34, 7.5 10.17 M7.5 10.17 C6 11.67, 6 11.67, 4.5 10.17 M7.5 10.17 C6 11.67, 6 11.67, 4.5 10.17 M4.5 10.17 C3.82 9.56, 3.13 8.95, 1.5 7.5 M4.5 10.17 C3.33 9.13, 2.17 8.09, 1.5 7.5 M1.5 7.5 C0 6, 0 6, 1.5 4.5 M1.5 7.5 C0 6, 0 6, 1.5 4.5 M1.5 4.5 C2.26 3.74, 3.02 2.98, 4.5 1.5 M1.5 4.5 C2.29 3.71, 3.09 2.91, 4.5 1.5 M4.5 1.5 C6 0, 6 0, 7.5 1.5 M4.5 1.5 C6 0, 6 0, 7.5 1.5"
       stroke="#e03131"
       stroke-width="1"
       fill="none"
       id="path10"
       style="stroke:#db1d1d;stroke-opacity:0.91061997;stroke-width:1.00400398;stroke-dasharray:none" />
  </g>
</svg>
